<svg xmlns="http://www.w3.org/2000/svg" xmlns:xlink="http://www.w3.org/1999/xlink" version="1.1" x="0px" y="0px" viewBox="0 0 100 100" enable-background="new 0 0 100 100" xml:space="preserve"><path fill="#000000" d="M82.206,16.073c-7.989-7.988-16.458-5.189-21.283-0.364L49.845,26.787c-0.781,0.781-0.781,2.047,0,2.829  c0.781,0.781,2.048,0.781,2.829,0l11.078-11.078c7.081-7.08,13.75-1.511,15.626,0.364c2.698,2.699,8.197,9.753,0.99,16.959  L63.28,52.95c-7.473,7.472-13.636,2.922-15.939,0.619c-0.781-0.781-2.047-0.781-2.829,0c-0.781,0.781-0.781,2.047,0,2.829  c2.711,2.711,6.357,4.688,10.414,4.688c3.53,0,7.373-1.496,11.183-5.307L83.197,38.69C91.169,30.718,87.912,21.78,82.206,16.073z"></path><path fill="#000000" d="M52.17,70.092l-2.829-2.828L38.086,78.519c-2.541,2.54-5.303,3.701-8.204,3.448  c-2.55-0.222-5.186-1.576-7.422-3.813c-2.456-2.456-4.037-5.267-4.452-7.915c-0.502-3.203,0.663-6.246,3.461-9.044l17.088-17.089  c7.553-7.552,13.725-3.011,16.028-0.707c0.781,0.781,2.047,0.781,2.828,0s0.781-2.047,0-2.828  c-7.741-7.741-16.52-4.458-21.685,0.707L18.641,58.366c-3.7,3.7-5.285,8.019-4.584,12.491c0.698,4.459,3.417,7.967,5.575,10.125  c2.901,2.901,6.419,4.666,9.904,4.969C29.909,85.984,30.28,86,30.65,86c3.678,0,7.206-1.594,10.265-4.653L52.17,70.092z"></path></svg>